<?xml version="1.0" encoding="utf-8"?>
<!-- Generator: Adobe Illustrator 21.0.0, SVG Export Plug-In . SVG Version: 6.00 Build 0)  -->
<svg version="1.1" id="Layer_1" xmlns="http://www.w3.org/2000/svg" xmlns:xlink="http://www.w3.org/1999/xlink" x="0px" y="0px"
	 viewBox="0 0 64 64" style="enable-background:new 0 0 64 64;" xml:space="preserve">
<style type="text/css">
	.st0{fill:#039BE5;stroke:#0277BD;stroke-linecap:round;stroke-linejoin:round;stroke-miterlimit:10;}
	.st1{fill:#81D4FA;stroke:#0277BD;stroke-linecap:round;stroke-linejoin:round;stroke-miterlimit:10;}
	.st2{fill:#EC407A;stroke:#0277BD;stroke-linecap:round;stroke-linejoin:round;stroke-miterlimit:10;}
	.st3{fill:#FFA726;stroke:#0277BD;stroke-linecap:round;stroke-linejoin:round;stroke-miterlimit:10;}
	.st4{fill:#80CBC4;stroke:#0277BD;stroke-linecap:round;stroke-linejoin:round;stroke-miterlimit:10;}
	.st5{fill:none;stroke:#F48FB1;stroke-linecap:round;stroke-linejoin:round;stroke-miterlimit:10;}
	.st6{fill:none;stroke:#FFCC80;stroke-linecap:round;stroke-linejoin:round;stroke-miterlimit:10;}
	.st7{fill:none;stroke:#E0F2F1;stroke-linecap:round;stroke-linejoin:round;stroke-miterlimit:10;}
	.st8{fill:none;stroke:#26A69A;stroke-linecap:round;stroke-linejoin:round;stroke-miterlimit:10;}
	.st9{fill:none;stroke:#F57C00;stroke-linecap:round;stroke-linejoin:round;stroke-miterlimit:10;}
	.st10{fill:none;stroke:#D81B60;stroke-linecap:round;stroke-linejoin:round;stroke-miterlimit:10;}
	.st11{fill:#EEEEEE;stroke:#0277BD;stroke-linecap:round;stroke-linejoin:round;stroke-miterlimit:10;}
	.st12{fill:none;stroke:#BDBDBD;stroke-linecap:round;stroke-linejoin:round;stroke-miterlimit:10;}
	.st13{fill:none;stroke:#E1F5FE;stroke-linecap:round;stroke-linejoin:round;stroke-miterlimit:10;}
	.st14{fill:none;stroke:#FFFFFF;stroke-linecap:round;stroke-linejoin:round;stroke-miterlimit:10;}
	.st15{fill:none;stroke:#29B6F6;stroke-linecap:round;stroke-linejoin:round;stroke-miterlimit:10;}
	.st16{fill:none;stroke:#4FC3F7;stroke-linecap:round;stroke-linejoin:round;stroke-miterlimit:10;}
	.st17{fill:none;stroke:#0277BD;stroke-linecap:round;stroke-linejoin:round;stroke-miterlimit:10;}
</style>
<g id="Warehouse">
	<g>
		<path class="st1" d="M30.5-0.1L2,17.1c-0.9,0.5-1.5,1.5-1.5,2.6V56c0,1.7,1.3,3,3,3h57c1.7,0,3-1.3,3-3V19.7c0-1.1-0.6-2-1.5-2.6
			L33.5-0.1C32.6-0.6,31.4-0.6,30.5-0.1z"/>
		<path class="st13" d="M3,18.8L31.5,1.6c0.2-0.1,0.3-0.1,0.5-0.1 M32,1.5c0.2,0,0.4,0,0.5,0.1L61,18.8"/>
		<path class="st0" d="M51.5,23h-39c-1.7,0-3,1.3-3,3v33h45V26C54.5,24.3,53.2,23,51.5,23z"/>
		<line class="st0" x1="11.5" y1="57" x2="52.5" y2="57"/>
		<path class="st3" d="M42.5,64.5h-13c-0.6,0-1-0.4-1-1v-13c0-0.6,0.4-1,1-1h13c0.6,0,1,0.4,1,1v13C43.5,64.1,43.1,64.5,42.5,64.5z"
			/>
		<path class="st3" d="M57.5,64.5h-13c-0.6,0-1-0.4-1-1v-13c0-0.6,0.4-1,1-1h13c0.6,0,1,0.4,1,1v13C58.5,64.1,58.1,64.5,57.5,64.5z"
			/>
		<path class="st2" d="M38.5,18h-13c-0.6,0-1-0.4-1-1v-3c0-0.6,0.4-1,1-1h13c0.6,0,1,0.4,1,1v3C39.5,17.6,39.1,18,38.5,18z"/>
		<path class="st11" d="M51.5,23h-39c-1.7,0-3,1.3-3,3v8.5h45V26C54.5,24.3,53.2,23,51.5,23z"/>
		<g>
			<path class="st3" d="M57.5,49.5h-13c-0.6,0-1-0.4-1-1v-13c0-0.6,0.4-1,1-1h13c0.6,0,1,0.4,1,1v13C58.5,49.1,58.1,49.5,57.5,49.5z
				"/>
			<path class="st3" d="M43.8,34.8l3.7,4.7h7l3.7-4.7c-0.2-0.2-0.4-0.3-0.7-0.3h-13C44.2,34.5,43.9,34.6,43.8,34.8z"/>
		</g>
		<path class="st3" d="M43.8,49.8l3.7,4.7h7l3.7-4.7c-0.2-0.2-0.4-0.3-0.7-0.3h-13C44.2,49.5,43.9,49.6,43.8,49.8z"/>
		<path class="st3" d="M28.8,49.8l3.7,4.7h7l3.7-4.7c-0.2-0.2-0.4-0.3-0.7-0.3h-13C29.2,49.5,28.9,49.6,28.8,49.8z"/>
		<line class="st3" x1="9.5" y1="28.7" x2="54.5" y2="28.7"/>
		<line class="st9" x1="30.5" y1="62.5" x2="41.5" y2="62.5"/>
		<line class="st9" x1="45.5" y1="62.5" x2="56.5" y2="62.5"/>
		<line class="st9" x1="45.5" y1="47.5" x2="56.5" y2="47.5"/>
		<line class="st14" x1="12.5" y1="25" x2="51.5" y2="25"/>
		<line class="st14" x1="12.5" y1="30.7" x2="51.5" y2="30.7"/>
	</g>
</g>
</svg>
